<svg xmlns="http://www.w3.org/2000/svg" width="110.072" height="139.616" viewBox="0 0 110.072 139.616"><g id="Grupo_206" data-name="Grupo 206" transform="translate(-995.922)"><path id="Trazado_155" fill="#fff" d="M1063.015,0a17.64,17.64,0,0,1,8.115,3.821,23.042,23.042,0,0,1,2.074,2.147,11.31,11.31,0,0,0,7.278,4.112,15.639,15.639,0,0,1,13.027,13.027,11.56,11.56,0,0,0,4.112,7.278c5.677,4.8,7.387,11.281,4.876,18.231a11.339,11.339,0,0,0-.036,7.969c2.584,7.169.8,13.682-5.058,18.558a11.2,11.2,0,0,0-3.894,7.1,14.754,14.754,0,0,1-4.4,8.551c-.873.837-.764,1.346-.255,2.293q8.3,14.246,16.448,28.493a4.879,4.879,0,0,1,.692,2.547c-.073,1.71-1.783,2.656-3.639,2.147-4.73-1.237-9.425-2.511-14.155-3.784a4.972,4.972,0,0,0-.837-.146c-1.31,4.84-2.62,9.643-3.894,14.446-.364,1.383-.946,2.474-2.474,2.693s-2.4-.655-3.13-1.929c-5.968-10.371-11.972-20.742-17.9-31.113a2.3,2.3,0,0,0-1.965-1.346,13.84,13.84,0,0,1-3.13-.873,10.751,10.751,0,0,0-7.824,0c-1.128.4-2.365.582-3.493,1.019a2.55,2.55,0,0,0-1.31,1.164c-6,10.335-11.972,20.742-18.013,31.076a4.776,4.776,0,0,1-1.965,1.929c-1.528.691-3.093-.4-3.6-2.293-1.2-4.439-2.365-8.915-3.566-13.355-.109-.437-.255-.873-.437-1.383-3.6.946-7.205,1.892-10.771,2.875-1.346.364-2.729.691-4.076,1.092a2.745,2.745,0,0,1-3.311-.873,2.838,2.838,0,0,1,0-3.421c5.531-9.57,11.062-19.177,16.593-28.711.546-.946.655-1.492-.291-2.365a14.785,14.785,0,0,1-4.549-8.915,10.805,10.805,0,0,0-3.93-6.914c-5.75-4.8-7.533-11.39-4.985-18.34a11.245,11.245,0,0,0-.036-8.078,15.65,15.65,0,0,1,4.84-18.158,11.476,11.476,0,0,0,4.112-7.241,15.634,15.634,0,0,1,13.136-13.1,11.122,11.122,0,0,0,7.242-4.148,15.355,15.355,0,0,1,9.607-5.713,1.882,1.882,0,0,0,.473-.218h4.621c6.768,2.511,8.551,2.511,14.992,0C1059.922,0,1061.487,0,1063.015,0Zm-2.147,100.034a10.791,10.791,0,0,0,7.969-4,16.4,16.4,0,0,1,10.662-6.15,10.078,10.078,0,0,0,8.552-8.369,17,17,0,0,1,6.223-10.953,9.945,9.945,0,0,0,3.129-11.645,17.181,17.181,0,0,1,0-12.481,10.041,10.041,0,0,0-3.239-11.754,16.743,16.743,0,0,1-6.113-10.589,10.112,10.112,0,0,0-8.588-8.624,16.11,16.11,0,0,1-10.225-5.677c-3.566-4.258-7.5-5.349-12.736-3.457a15.954,15.954,0,0,1-11.172,0c-5.2-1.892-9.025-.91-12.663,3.311a16.764,16.764,0,0,1-10.3,5.786,10.19,10.19,0,0,0-8.7,8.7,16.459,16.459,0,0,1-5.9,10.371c-3.894,3.311-5.022,7.423-3.239,12.227a16.169,16.169,0,0,1,0,11.681c-1.783,4.84-.655,9.025,3.311,12.336A16.113,16.113,0,0,1,1013.672,81a10.306,10.306,0,0,0,8.77,8.806,16.145,16.145,0,0,1,10.189,5.713c3.457,4.112,7.46,5.2,12.518,3.384a16.456,16.456,0,0,1,11.572.036A29.085,29.085,0,0,0,1060.868,100.034Zm4.439,4.694c4.8,8.333,9.5,16.448,14.337,24.817.182-.473.218-.655.291-.8.91-3.421,1.819-6.8,2.729-10.225a2.8,2.8,0,0,1,3.784-2.22c2.293.582,4.549,1.2,6.8,1.783,1.346.364,2.656.691,4.367,1.128-4.876-8.442-9.57-16.557-14.192-24.6-1.383.291-2.656.546-3.93.837A9.156,9.156,0,0,0,1074,98.505,17.61,17.61,0,0,1,1065.308,104.728Zm-46.724-10.043c-4.694,8.115-9.316,16.157-14.119,24.49.691-.146,1.019-.182,1.383-.291,3.311-.873,6.623-1.783,9.971-2.62a2.7,2.7,0,0,1,3.493,1.929c.146.473.255.946.4,1.456.873,3.2,1.71,6.4,2.693,9.971,4.876-8.442,9.57-16.593,14.228-24.6a35.729,35.729,0,0,1-4.8-2.693,36.346,36.346,0,0,1-3.966-3.894,10.079,10.079,0,0,0-5.022-2.838C1021.459,95.267,1020.113,95.012,1018.584,94.685Z" data-name="Trazado 155"/><path id="Trazado_156" fill="#fff" d="M1102.752,107.781l9.031-9.031c1.6-1.6,2.635-1.6,4.2,0l5.952,5.952c1.451,1.481,1.48,2.547.059,3.968L1104.765,125.9c-1.451,1.451-2.487,1.451-3.968,0-4.057-4.057-8.113-8.084-12.141-12.14-1.421-1.421-1.421-2.487-.03-3.879,2.073-2.1,4.175-4.175,6.277-6.278,1.3-1.3,2.428-1.3,3.731,0C1099.939,104.938,1101.3,106.3,1102.752,107.781Zm0,13.532,14.6-14.6c-1.155-1.155-2.369-2.369-3.642-3.613-2.9,2.9-5.863,5.893-8.854,8.854-1.629,1.629-2.635,1.629-4.294-.03-1.273-1.273-2.517-2.576-3.672-3.731-1.3,1.3-2.517,2.487-3.642,3.613C1096.415,114.946,1099.613,118.174,1102.752,121.313Z" data-name="Trazado 156" transform="translate(-54.251 -58.683)"/></g></svg>