<svg xmlns="http://www.w3.org/2000/svg" width="130.459" height="130.716" viewBox="0 0 130.459 130.716"><g id="Grupo_208" data-name="Grupo 208" transform="translate(-2305.19 -4.834)"><path id="Trazado_160" fill="none" d="M2589.138,38.683a24.143,24.143,0,0,0-7.321-13.1,25.151,25.151,0,0,0-13.6-6.472,24.776,24.776,0,0,0-14.954,2.67,24.513,24.513,0,0,0-10.619,10.808c-.879,1.759-.785,2.231.566,3.644,1.508,1.539,1.54,2.451.126,4.147-1.7,2.042-3.362,4.053-5.121,6.189l-2.011,2.419h5.247c1.759.031,2.859.943,2.89,2.356a2.251,2.251,0,0,1-.691,1.7,3.121,3.121,0,0,1-2.262.723,2.142,2.142,0,0,0-1.571.314,1.654,1.654,0,0,0-.408,1.162.241.241,0,0,1-.063.157c-.188.346-.22.566-.157.723a.948.948,0,0,0,.6.44,3.082,3.082,0,0,1,1.759,3.99c-.314.785-.125,1.005.566,1.414a2.777,2.777,0,0,1,1.445,2.419,3.055,3.055,0,0,1-1.445,2.608,3.168,3.168,0,0,1-.722.377c-.189.094-.346.157-.534.251a1.646,1.646,0,0,0-.911,1.728,1.6,1.6,0,0,0,1.383,1.382c.345.063.722.063,1.1.094h2.859c1.791,0,3.645,0,5.467.031a6.574,6.574,0,0,1,6.566,6.786v8.294a2.057,2.057,0,0,0,2.294,2.293h5.372c.314,0,.5,0,.6-.126.094-.094.125-.251.125-.534-.031-10.148-.031-20.17,0-31.26,0-.471-.062-.66-.6-.785a13.189,13.189,0,0,1-4.461-23.846,12.658,12.658,0,0,1,9.865-2.1,13.26,13.26,0,0,1,.565,25.919c-.628.157-.754.314-.754.911.031,11.09.031,21.238,0,31.009,0,.346.031.566.157.66.094.094.283.126.6.126,1.382-.031,2.8-.031,4.178-.031h3.236a2.153,2.153,0,0,0,1.634-.628,2.059,2.059,0,0,0,.5-1.634l-.126-2.231c-.314-5.655-.628-11.5-1.005-17.248a4.456,4.456,0,0,1,1.571-4.021C2588.227,55.994,2590.929,48.014,2589.138,38.683Z" data-name="Trazado 160" transform="translate(-158.432 -9.637)"/><path id="Trazado_161" fill="#fff" d="M2426.59,74.224c-.283-5.4-.6-11.185-.943-16.934a2.282,2.282,0,0,1,.785-1.885c8.137-8.106,10.9-17.719,8.231-28.59a29.04,29.04,0,0,0-33.585-21.458c-9.677,1.854-16.84,7.383-21.27,16.431a5.992,5.992,0,0,0,.314,6.064,1.373,1.373,0,0,1-.188,1.916c-1.979,2.293-4.178,4.933-6.283,7.54a4.045,4.045,0,0,0-.691,3.833,3.607,3.607,0,0,0,2.545,2.388c.6.157.943.346,1.068.628.188.346,0,.785-.251,1.288-.88,2.042-.534,3.456,1.163,4.744a1.028,1.028,0,0,1,.5,1.162,3.093,3.093,0,0,0,.565,2.765c.534.628.314.974-.063,1.445a5.74,5.74,0,0,0-.817,6.5,5.935,5.935,0,0,0,5.718,3.487h7.791c2.67,0,3.362.691,3.362,3.424V71.3c0,1.822,0,3.707.031,5.592a6.114,6.114,0,0,0,5.906,6.032c2.073.094,4.116.063,6.126.031a1.193,1.193,0,0,1,.817.22,1.069,1.069,0,0,1,.22.785V98.384a4.365,4.365,0,0,1-3.424,4.3,12.206,12.206,0,0,1-3.362.22,16.428,16.428,0,0,0-1.76,0,.54.54,0,0,1-.471-.157.646.646,0,0,1-.063-.534c0-.063.031-.126.031-.188a19.749,19.749,0,0,0-.44-5.906,16.084,16.084,0,0,0-27.05-8.169c-.723.691-1.068.346-1.445-.031l-.126-.094a15.7,15.7,0,0,0-20.107-1.7c-5.309,3.8-7.666,9.394-7.038,16.588v.157h-.157a.692.692,0,0,0-.251.031c-.188,0-.408.031-.628.031h-1.1c-.911,0-1.823.031-2.733-.031a4.442,4.442,0,0,1-4.241-4.273c-.031-2.953-.031-6-.031-8.891V83.964a.95.95,0,0,1,.22-.723,1.073,1.073,0,0,1,.754-.22c1.979.031,3.77.031,5.467,0,4.021-.063,6.566-2.639,6.6-6.66.031-1.634,0-3.3,0-4.9V68.852c0-2.482.754-3.236,3.173-3.236h7.666a6.029,6.029,0,0,0,6-3.424,5.745,5.745,0,0,0-.911-6.692.757.757,0,0,1-.031-1.162,3.42,3.42,0,0,0,.691-2.859c0-.063-.031-.126-.031-.189a.712.712,0,0,1,.283-.88c1.979-1.257,2.356-3.047,1.194-5.467a1.1,1.1,0,0,1-.126-.785c.094-.251.377-.346.722-.471a4.259,4.259,0,0,0,3.017-2.7,4.306,4.306,0,0,0-.974-3.927c-1.571-1.916-3.173-3.833-4.744-5.718-.5-.566-.974-1.162-1.445-1.728-.346-.408-.66-.785-.188-1.477a6.375,6.375,0,0,0,.251-6.723A28.885,28.885,0,0,0,2330.861,5.2a29.64,29.64,0,0,0-14.263,5.624,29.5,29.5,0,0,0-10.116,14.735,30.1,30.1,0,0,0-1.288,8.106,29.771,29.771,0,0,0,1.445,9.645,33.768,33.768,0,0,0,5.121,9.331,33.51,33.51,0,0,0,2.7,2.89,1.933,1.933,0,0,1,.691,1.665c-.345,5.844-.66,11.813-.942,17.06,0,.22-.031.408-.031.628a10.045,10.045,0,0,0,.188,3.487,6.216,6.216,0,0,0,5.687,4.587c2.482.094,5.027.094,7.76.031a1.407,1.407,0,0,1,1.068.283,1.483,1.483,0,0,1,.283,1.1c-.031,1.791,0,3.582,0,5.341.031,2.67.031,5.467-.063,8.2a8.7,8.7,0,0,0,2.67,6.692,8.5,8.5,0,0,0,6.409,2.388c.88-.063,1.76-.031,2.608-.031.566,0,1.163.031,1.76,0h.063a1.157,1.157,0,0,1,1.225.817,17.806,17.806,0,0,0,3.8,5.467c7.289,7.634,13.7,14.358,19.542,20.515a8.38,8.38,0,0,0,1.445,1.162c.188.126.408.283.6.408a2.409,2.409,0,0,0,1.068.22,2.539,2.539,0,0,0,1.069-.251c.125-.094.314-.22.5-.346a9.539,9.539,0,0,0,1.917-1.539c4.87-5.121,9.833-10.336,14.64-15.363l5-5.247a16.126,16.126,0,0,0,3.456-4.933,1.4,1.4,0,0,1,1.508-.943c1.728.063,3.456.031,5.089,0a8.332,8.332,0,0,0,8.137-8.043c.094-4.9.063-9.865.031-14.546,0-.5.031-.88.283-1.1a1.555,1.555,0,0,1,1.068-.283c2.764.063,5.309.063,7.76-.031a6.216,6.216,0,0,0,5.687-4.587,10.085,10.085,0,0,0,.188-3.487A4.233,4.233,0,0,1,2426.59,74.224ZM2331.207,41.9h-.063a8.817,8.817,0,0,1-8.734-8.923,8.673,8.673,0,0,1,2.639-6.221,9.091,9.091,0,0,1,6.472-2.545,8.762,8.762,0,0,1,8.514,8.954A8.92,8.92,0,0,1,2331.207,41.9Zm2.042,4.9c0-.723.22-1.005,1.005-1.194a12.94,12.94,0,0,0,9.928-13.007A12.965,12.965,0,1,0,2328.128,45.6c1.005.251,1.068.723,1.068,1.414-.031,11.97,0,21.741,0,30.758,0,.44-.031.754-.251.943a1.142,1.142,0,0,1-.88.22c-1.445-.031-2.953-.031-4.367-.031h-2.89a2.534,2.534,0,0,1-1.917-.723,2.7,2.7,0,0,1-.6-2.074c.125-2.011.22-4.021.345-6,.251-4.556.534-9.237.817-13.855a3.426,3.426,0,0,0-1.351-3.079,24.567,24.567,0,0,1-8.765-19.667,25.135,25.135,0,0,1,47.754-10.4c.754,1.571.66,2.231-.534,3.456-1.7,1.759-1.7,2.293-.125,4.21,1.6,1.948,3.2,3.864,4.9,5.875l2.482,2.985h-6c-1.539.031-2.545.848-2.545,2.1s1.005,2.042,2.576,2.074c1.822.031,2.451.66,2.608,2.545a.5.5,0,0,1-.346.6c-.031,0-.063.031-.094.063-2.042,1.068-2.545,2.231-1.822,4.241.251.691-.031.911-.471,1.131a2.677,2.677,0,0,0,.188,5.027c.974.408,2.042,1.1,1.7,2.576-.345,1.382-1.539,1.571-2.67,1.571h-.66c-2.576,0-5.278-.031-7.886.031a6.232,6.232,0,0,0-6.095,6.126c-.031,1.759-.031,3.519,0,5.247v3.173c0,1.948-.848,2.8-2.765,2.828h-1.917c-1.1,0-2.23,0-3.33.031h-.094a.88.88,0,0,1-.691-.22,1.021,1.021,0,0,1-.22-.785C2333.249,68.035,2333.281,57.824,2333.249,46.8Zm57.682,62.583c-4.744,5.09-9.645,10.179-14.358,15.143-1.854,1.948-3.739,3.9-5.592,5.875a3.79,3.79,0,0,1-.377.346c-.063.063-.126.094-.188.157l-.126.094-.094-.126-6.032-6.315c-4.65-4.87-9.457-9.865-14.106-14.892a13.59,13.59,0,0,1-1.225-17.311,11.573,11.573,0,0,1,8.42-4.933,11.726,11.726,0,0,1,9.331,3.2c.408.408.817.817,1.194,1.257.314.314.6.66.911.974a2.093,2.093,0,0,0,3.33,0c.346-.346.66-.691.974-1.037.157-.188.345-.346.5-.534a11.371,11.371,0,0,1,11.844-3.487c4.4,1.162,7.414,4.273,8.671,9.017A12.664,12.664,0,0,1,2390.931,109.38ZM2409.625,41.9a8.864,8.864,0,0,1-6.252-15.08,8.594,8.594,0,0,1,6.189-2.576h.031a8.864,8.864,0,0,1,8.86,8.734,8.68,8.68,0,0,1-2.576,6.315A8.823,8.823,0,0,1,2409.625,41.9Zm13.29,11.153a4.2,4.2,0,0,0-1.477,3.77c.377,5.749.691,11.593,1.005,17.248l.126,2.231a2.534,2.534,0,0,1-.6,1.885,2.484,2.484,0,0,1-1.854.723h-3.236c-1.351,0-2.764,0-4.147.031h-.063a.985.985,0,0,1-.754-.22,1.178,1.178,0,0,1-.251-.88c.031-9.8.031-19.919,0-31.009,0-.754.22-1.037,1.005-1.225a12.934,12.934,0,0,0-.6-25.291,12.44,12.44,0,0,0-9.645,2.042,13.165,13.165,0,0,0-5.592,8.765,13.152,13.152,0,0,0,9.928,14.515.908.908,0,0,1,.848,1.068v31.26a.985.985,0,0,1-.22.754,1.051,1.051,0,0,1-.848.189H2401.2A2.4,2.4,0,0,1,2398.6,76.3V68a6.248,6.248,0,0,0-6.283-6.472c-1.822-.031-3.676-.031-5.467-.031h-2.828a4.715,4.715,0,0,1-1.162-.094,1.93,1.93,0,0,1-1.634-1.634,1.961,1.961,0,0,1,1.068-2.074c.188-.094.377-.189.534-.283a4.873,4.873,0,0,0,.691-.377,2.718,2.718,0,0,0,1.288-2.325,2.545,2.545,0,0,0-1.32-2.136c-.786-.471-1.1-.848-.691-1.822a2.757,2.757,0,0,0-1.571-3.582c-.44-.189-.691-.377-.786-.628a1.142,1.142,0,0,1,.157-.943.031.031,0,0,1,.031-.031,2.012,2.012,0,0,1,.5-1.414,2.248,2.248,0,0,1,1.791-.408,2.554,2.554,0,0,0,2.042-.628,1.9,1.9,0,0,0,.566-1.477c-.031-1.257-1.005-2.042-2.608-2.042-1.225-.031-2.45,0-3.739,0h-2.2l2.45-2.953c1.759-2.1,3.456-4.147,5.121-6.189,1.32-1.571,1.289-2.325-.094-3.739-1.476-1.508-1.571-2.136-.628-3.99A24.662,24.662,0,0,1,2394.607,11.8a24.968,24.968,0,0,1,15.143-2.7,25.468,25.468,0,0,1,13.792,6.535,24.406,24.406,0,0,1,7.415,13.29C2432.811,38.44,2430.109,46.514,2422.914,53.049Z" data-name="Trazado 161" transform="translate(0 0)"/><path id="Trazado_162" fill="#fff" d="M2499.384,338.182h0a1.91,1.91,0,0,0-1.571-.44,2.062,2.062,0,0,0-1.414.943,8.369,8.369,0,0,1-6.912,3.393h-.094a8.4,8.4,0,0,1-6.943-3.3,2.083,2.083,0,0,0-1.508-.974c-.094,0-.189-.031-.283-.031a2.019,2.019,0,0,0-1.225.44c-1.006.785-1.068,1.885-.22,3.047a11.992,11.992,0,0,0,9.9,4.964c4.556-.031,7.98-1.665,10.493-5.058A2.034,2.034,0,0,0,2499.384,338.182Z" data-name="Trazado 162" transform="translate(-118.946 -228.299)"/><path id="Trazado_163" fill="#fff" d="M2487.566,309.452h0a2.132,2.132,0,0,0,2.042-1.948,3.819,3.819,0,0,0,0-.848v-1.288a1.968,1.968,0,0,0-1.979-2.168h-.063c-1.257,0-1.979.785-2.011,2.168a16.387,16.387,0,0,0,.031,2.136A2.027,2.027,0,0,0,2487.566,309.452Z" data-name="Trazado 163" transform="translate(-123.685 -204.627)"/><path id="Trazado_164" fill="#fff" d="M2527.183,306.379a3.657,3.657,0,0,0,.785,2.7,1.758,1.758,0,0,0,1.289.471c1.351-.031,1.979-1.037,1.979-3.11v-1.257a1.891,1.891,0,0,0-1.979-1.885h0a1.966,1.966,0,0,0-2.042,1.979v.785C2527.152,306.128,2527.183,306.253,2527.183,306.379Z" data-name="Trazado 164" transform="translate(-152.243 -204.696)"/></g></svg>