<svg xmlns="http://www.w3.org/2000/svg" width="124.515" height="124.5" viewBox="0 0 124.515 124.5"><g id="Grupo_283" data-name="Grupo 283" transform="translate(-0.085)"><path id="Trazado_242" fill="#fff" d="M124.4,1.3c-.6-.9-1-1.3-1.8-1.3h0a7.491,7.491,0,0,0-1.6.4l-8.1,3.3c-3.8,1.5-7.6,3.1-11.3,4.7l-.2.1c-4,1.7-8.1,3.4-12.7,3.6a256.655,256.655,0,0,0-26.1,2.2,34.624,34.624,0,0,0-11.4,3.2c-2.9,1.5-6,2.9-8.9,4.3l-1.7.8-3.9,1.8L20.9,32c-2.2,1.1-3.2,2.6-3.2,4.7,0,3.1,2.4,5.9,5.8,6.8a14.723,14.723,0,0,0,3.6.4,15.928,15.928,0,0,0,5.7-1c7.4-2.3,15.4-4.9,22-7.1a1.079,1.079,0,0,1,1.1,0,1.456,1.456,0,0,1,.6.9A7.6,7.6,0,0,0,62,41.9a17.262,17.262,0,0,0,4.5.5h1.6c2.3.1,4.7.2,7,.3,2.1.1,4.2.2,6.4.3,4.9.2,10.5.4,15.9.7,6.6.3,12.8-4.6,14.4-11.5a1.435,1.435,0,0,1,1.5-1.3h8.5a2.761,2.761,0,0,0,2.8-1.4l-.2-28.2ZM107.9,29c-.3,6.2-4.7,10.4-10.8,10.4h-.6c-5.9-.3-11.8-.5-17.8-.7l-12.1-.5c-.8,0-1.6-.1-2.7-.2a2.663,2.663,0,0,1-1.2-.3,3.345,3.345,0,0,1-2.4-3.5,3.019,3.019,0,0,1,3-2.6c2-.2,4.1-.3,6.5-.5l6.7-.4h.2a24.519,24.519,0,0,0,2.7-.2c.9-.1,1.8-.1,2.7-.2a2.051,2.051,0,0,0,2-2v-.1a2.035,2.035,0,0,0-.6-1.5,2.1,2.1,0,0,0-1.5-.5l-1,.1c-4.6.2-9.3.5-13.9.8H65.7a17.524,17.524,0,0,0-4,.5A7.586,7.586,0,0,0,57.8,30l-.1.1a2.286,2.286,0,0,1-1,.7c-2.4.8-4.8,1.6-7.3,2.3-6.3,2-12.9,4.1-19.3,6.2a11,11,0,0,1-3.1.4,6.6,6.6,0,0,1-1.4-.1,4.756,4.756,0,0,1-2.3-.7,2.8,2.8,0,0,1-1.6-2.2c0-.7.7-1,1.3-1.3.1,0,.1-.1.2-.1s.1-.1.2-.1l10.4-5,.4-.2c6.9-3.3,13.1-6.3,19.3-9.3a33.037,33.037,0,0,1,9.7-2.5c6.2-.9,12.5-1.3,18.6-1.7l2.2-.2c.4,0,.9-.1,1.3-.1s.9-.1,1.3-.1l.9-.1c2.3-.2,4.8-.3,7.1-.7A14.01,14.01,0,0,0,98.2,14a4.875,4.875,0,0,1,.7-.3c.3-.1.6-.3.9-.4,2.4-1,4.8-1.9,7.2-2.9,2.1-.8,4.1-1.7,6.1-2.5l1.1-.5a24.425,24.425,0,0,0,2.4-1c.7-.3,1.5-.6,2.2-.9l.1-.1c.1-.1.3-.1.4-.2l.9-.3v20a2.663,2.663,0,0,1-.3,1.2,1.314,1.314,0,0,1-1.2.3h-8.5a2.067,2.067,0,0,0-2.4,1.8A2.814,2.814,0,0,1,107.9,29Z" data-name="Trazado 242"/><path id="Trazado_243" fill="#fff" d="M101.1,81h0a16.743,16.743,0,0,0-9.4.6c-6.6,2.1-13.2,4.2-19,6.1l-3,1a1.069,1.069,0,0,1-1.7-.8,7.574,7.574,0,0,0-5.6-5.2,19.783,19.783,0,0,0-5.4-.5,20.9,20.9,0,0,1-2.5-.1h-.2c-4.5-.1-16.3-.6-21.6-.9L27.4,81c-6.8-.4-13,4.6-14.5,11.6a1.4,1.4,0,0,1-1.4,1.2H2.7c-1.9,0-2.6.6-2.6,2.5v25.1a3.54,3.54,0,0,0,1.2,3l.1.1H3l.1-.1a.914.914,0,0,1,.5-.3h.2c1.1-.5,2.3-.9,3.4-1.4s2.3-.9,3.4-1.4l.2-.1c1.2-.5,2.3-.9,3.5-1.4,3.7-1.5,7.4-3,11.1-4.6a31.908,31.908,0,0,1,10.5-2.7c8.5-.4,17.5-1,26.3-2.2a35.273,35.273,0,0,0,11-3c3.6-1.8,7.2-3.5,11-5.3H84l2.4-1.2c.9-.4,1.8-.8,2.6-1.2,4.9-2.3,9.3-4.5,13.6-6.6l.6-.3c2.4-1.2,3.5-2.7,3.6-4.9C106.9,84.8,104.4,81.9,101.1,81Zm-.9,8.6a21.016,21.016,0,0,0-2.6,1.3L94,92.7l-1,.5c-3.1,1.5-6.2,3-9.4,4.5l-10.5,5.1a31.389,31.389,0,0,1-8.9,3.1A207.139,207.139,0,0,1,42.9,108c-2.5.2-5.2.4-7.7.6l-1.6.1h-.1a14.812,14.812,0,0,0-5.1.9l-1.2.5c-6.9,2.8-14,5.8-21.1,8.7H6c-.1,0-.1,0-.2.1a1.592,1.592,0,0,1-1.3.3l-.3-.1V99.2a1.222,1.222,0,0,1,.3-.9,1.689,1.689,0,0,1,1-.3h8.8a2.18,2.18,0,0,0,2.4-2.3A10.459,10.459,0,0,1,28.1,85.3h1.4c1.1.1,19.7.8,25.2,1,.3,0,.6.1.9.1h.3c.5,0,1.1.1,1.6.1h0c1.1,0,2.3.1,3.5.2a3.508,3.508,0,0,1,3.3,3.5c0,1.7-1.3,2.8-3.3,3a45.33,45.33,0,0,1-5.2.3v-.1l-.5.1v.1c-.5,0-1.1.1-1.6.1-.6,0-1.2.1-1.9.1-.6,0-1.3.1-1.9.1h-.2c-.9.1-1.8.1-2.7.2-1.6.1-3.2.2-4.7.3a1.91,1.91,0,0,0-1.4.7,1.955,1.955,0,0,0-.4,1.6,1.883,1.883,0,0,0,2,1.7h.1l3.2-.2c4.9-.3,10-.5,15-.9a7.916,7.916,0,0,0,6.2-3,2.091,2.091,0,0,1,1.3-.7c.1,0,.2-.1.3-.1l4.2-1.4c3.6-1.2,7.2-2.4,10.8-3.5,1.3-.4,2.5-.8,3.7-1.2A60.468,60.468,0,0,1,95.6,85c1.9-.4,4-.6,5.9.7.9.6,1.4,1.2,1.3,1.8,0,.7-.5,1.2-1.5,1.7l-1.1.4Z" data-name="Trazado 243"/><path id="Trazado_244" fill="#fff" d="M59.3,77.2a5.53,5.53,0,0,0,3,.9,5.2,5.2,0,0,0,3.1-1A38.25,38.25,0,0,0,77.3,66c2.3-3.3,3.3-6.2,3.3-9.1A10.371,10.371,0,0,0,70.4,46.4a10.481,10.481,0,0,0-6.9,2.5,1.727,1.727,0,0,1-2.4.2c-.1-.1-.2-.1-.2-.3a10.037,10.037,0,0,0-6.6-2.5H54a10.039,10.039,0,0,0-2.4.4A10.447,10.447,0,0,0,45.1,52a11.7,11.7,0,0,0-.3,9C47.2,67.5,51.8,72.6,59.3,77.2ZM51.7,51a6.116,6.116,0,0,1,6.6.9c2.9,2.5,5,2.4,8-.1a5.74,5.74,0,0,1,6.6-.8,5.81,5.81,0,0,1,3.5,5.6,10.833,10.833,0,0,1-1.9,5.8,32.167,32.167,0,0,1-11.3,11l-.1.1a1.613,1.613,0,0,1-.9.3,1.854,1.854,0,0,1-.7-.2c-6.7-4-10.9-8.6-13-14.4-1.2-3.5-.1-6.7,2.8-8.2h.4Z" data-name="Trazado 244"/></g></svg>