<svg xmlns="http://www.w3.org/2000/svg" width="132.737" height="119.009" viewBox="0 0 132.737 119.009"><g id="Grupo_213" data-name="Grupo 213" transform="translate(-1358.486 -11.109)"><path id="Trazado_176" fill="#fff" d="M1528.638,113.024a2.359,2.359,0,0,0-2.7,1.079,4.954,4.954,0,0,1-1.483,1.652c.741-6.4-1.213-12.134-4.381-17.492-1.011-1.753-3.135-1.483-4.078.371a12.728,12.728,0,0,1-2.224,3.539,2.888,2.888,0,0,1-.607-2.123,65.11,65.11,0,0,1,1.314-11.729,2.518,2.518,0,0,0-.775-2.46,2.145,2.145,0,0,0-2.528-.3c-7.482,3.91-13.414,9.269-16.582,17.29a32.633,32.633,0,0,0-1.955,9.2c-.337-.4-.506-.607-.674-.843a17.172,17.172,0,0,1-1.618-3,2.165,2.165,0,0,0-2.056-1.483,2.3,2.3,0,0,0-2.258,1.449,33.107,33.107,0,0,0-2.292,23.02c4.045,15.807,18,19.818,27.772,17.695,9.37-2.056,16.919-9.943,18.234-19.245a85.967,85.967,0,0,0,.573-14.122A2.322,2.322,0,0,0,1528.638,113.024Zm-3.775,17.594c-1.854,7.617-9.943,14.324-17.8,14.189-7.887-.135-14.526-3.472-17.594-11.358-2.292-5.865-3.067-11.83-1.18-17.964a5.547,5.547,0,0,1,.371-.876c1.618,2.224,3.2,4.348,4.921,6.37.876,1.011,1.82,1.719,3.2,1.011,1.18-.573,1.483-1.517,1.078-3.168-2.528-10.482,2.191-20.762,11.224-26.458a56.328,56.328,0,0,0-.472,8.224,8.031,8.031,0,0,0,1.483,4.516c1.82,2.494,4.415,2.8,6.775.809.371-.337.674-.775,1.213-1.382,1.719,4.955,3.269,9.606.2,14.358a2.371,2.371,0,0,0,1.449,3.707,5.527,5.527,0,0,0,4.146-.4c.607-.27,1.146-.607,1.887-1.011C1525.436,124.416,1525.6,127.584,1524.863,130.618Z" data-name="Trazado 176" transform="translate(-82.314 -49.171)"/><path id="Trazado_177" fill="#fff" d="M1490.814,44.574a39.858,39.858,0,0,0-65.083-24c-.607.506-.91.64-1.618.067-9.673-8.022-20.762-10.92-33.131-8.864a36.8,36.8,0,0,0-9.4,2.966h0l-.4.2c-.169.1-.371.169-.539.27-.1.067-.2.1-.3.169a40.581,40.581,0,0,0-4.179,2.46c-1.18.775-2.224,1.584-3.2,2.359-.135.1-.236.2-.371.3-8.19,6.977-13.01,15.807-13.92,26.525-1.045,12.369,2.629,23.424,11.324,32.322,15.706,16.077,31.682,31.884,47.59,47.793a9.665,9.665,0,0,0,7.179,2.966,10.275,10.275,0,0,0,7.718-3.337q12.639-12.69,25.345-25.346l1.247-1.247.168-.169,8.055-8.055h0c3.977-3.943,7.988-7.887,11.9-11.931a41.342,41.342,0,0,0,12.032-29.255A37.351,37.351,0,0,0,1490.814,44.574Zm-5.258,14.661A39.48,39.48,0,0,1,1474.4,78.245c-3.775,3.64-7.415,7.415-11.122,11.089l-.2.2-6.977,6.977-.708.708-25.851,25.851c-3.067,3.067-6.235,3.067-9.3.034-6-6-12-11.965-18-17.964-9.269-9.269-18.6-18.47-27.806-27.772-9.134-9.235-12.875-20.324-10.684-33.2a33.1,33.1,0,0,1,11.864-20.189l.067-.067a35.278,35.278,0,0,1,3.708-2.663,45.619,45.619,0,0,1,4.179-2.326h0a33.854,33.854,0,0,1,13.819-3.2A34.893,34.893,0,0,1,1422.7,25.6c1.685,1.618,2.629,1.584,4.382-.034,9.033-8.325,19.616-11.459,31.682-9.033A34.846,34.846,0,0,1,1485.556,59.236Z" data-name="Trazado 177" transform="translate(0 0)"/></g></svg>