<svg xmlns="http://www.w3.org/2000/svg" width="140.417" height="140.27" viewBox="0 0 140.417 140.27"><g id="Grupo_216" data-name="Grupo 216" transform="translate(-2347.9 -499.1)"><g id="Grupo_215" data-name="Grupo 215" transform="translate(2378.784 524.178)"><path id="Trazado_179" fill="#fff" d="M2510.187,593.774a10.067,10.067,0,0,0-2.882-7.093c-2.512-2.66-7.13-4.544-12.6-1.884l-.776.369-.259-.813c-.037-.074-.037-.148-.074-.222a2.758,2.758,0,0,1-.185-.591,10.211,10.211,0,0,0-14.555-7.241,1.59,1.59,0,0,1-1.367.074,1.5,1.5,0,0,1-.665-1.108,1.6,1.6,0,0,0-.037-.185c-1.071-4.544-4.987-7.979-9.272-8.09a10.421,10.421,0,0,0-10.713,7.351,1.762,1.762,0,0,0-.074.48,7.464,7.464,0,0,0-.111,1.81.4.4,0,0,1-.148.332.336.336,0,0,1-.369,0l-.886-.406a10.428,10.428,0,0,0-15.442,9.679c.148,2.106.111,4.248.074,6.317v.037c0,1.145-.037,2.327-.037,3.51a1.958,1.958,0,0,1-1.478,2.18,10.216,10.216,0,0,0-6.834,9.753v21.316a24.194,24.194,0,0,0,.961,6.576c2.105,7.13,6.723,13,14.112,17.954a3.039,3.039,0,0,1,1.551,2.808c-.037,3.362-.037,6.8-.037,10.085v.037c0,3.953,0,8.053-.037,12.117,0,1.625.333,2.549,1.219,3.251h43a2.706,2.706,0,0,0,1.4-2.7c-.037-4.47-.037-9.014-.037-13.41V656.5a2.572,2.572,0,0,1,1.33-2.512,31.83,31.83,0,0,0,5.726-4.47c6.576-6.317,9.716-13.521,9.568-21.981-.111-7.943-.074-16-.074-23.791v-9.974Zm-33.137-8.2a6.276,6.276,0,0,1,6.207-6.243h.074a6.373,6.373,0,0,1,6.206,6.354c.037,2.069.037,4.174.037,6.243v5.283c0,2.069,0,4.211.037,6.317a2.046,2.046,0,0,1-2.069,2.364l-.591.037c-.775.037-1.551.111-2.364.111a12.575,12.575,0,0,1-2.475-.222,6.135,6.135,0,0,1-5.061-6.059C2476.976,594.623,2476.976,590.005,2477.05,585.573Zm-16.587-8.238a6.34,6.34,0,0,1,6.206-6.317h.037a6.419,6.419,0,0,1,6.28,6.391c.037,2.18.037,4.359,0,6.5v5.357c0,2.18,0,4.433.037,6.613a1.831,1.831,0,0,1-.406,1.367,1.677,1.677,0,0,1-1.219.406h-.074c-2.956-.037-6.058-.037-9.236,0h-.111a1.612,1.612,0,0,1-1.145-.406,1.768,1.768,0,0,1-.406-1.293v-7.61C2460.426,584.723,2460.426,581.029,2460.463,577.334Zm-16.624,13.816h0c0-1.81,0-3.657.037-5.5a6.341,6.341,0,0,1,6.169-6.354h.111a6.43,6.43,0,0,1,6.243,6.354c.037,1.182.037,2.364,0,3.51v3.1c0,1.219,0,2.475.037,3.694a1.847,1.847,0,0,1-.369,1.256,1.7,1.7,0,0,1-1.293.406c-3.288-.037-6.317-.037-9.236,0h-.074a1.63,1.63,0,0,1-1.219-.406,1.667,1.667,0,0,1-.406-1.256Zm62.211,38.863a18.492,18.492,0,0,1-1.256,6.022c-2.327,6.243-6.76,11.267-13.558,15.331a3.574,3.574,0,0,0-1.367,1.293,3.224,3.224,0,0,0-.369,1.7c.037,1.441.073,6.723.073,14.74v7.61a1.394,1.394,0,0,1-.3,1,1.617,1.617,0,0,1-.886.517h-34.5a1.7,1.7,0,0,1-1.81-2.032v-.074c.037-3.879.037-7.758.037-11.526V654.026a2.356,2.356,0,0,0-1.33-2.364,31.816,31.816,0,0,1-5.837-4.174c-6.5-5.763-9.568-12.339-9.42-20.1.074-4.211.074-8.534.037-12.671v-5.948c0-4.4,2.586-7.019,6.945-7.019h28.039a7.728,7.728,0,0,1,.924.037,1.39,1.39,0,0,1,.406.037l.886.037-.185.85a14.287,14.287,0,0,1-12.043,11.341,44.623,44.623,0,0,1-6.649.222h-.111c-1.108-.037-2.254-.037-3.4,0-1.441.037-2.254.776-2.29,1.958-.037,1.625,1.219,2.032,2.29,2.106a25.723,25.723,0,0,1,3.51.332,22.972,22.972,0,0,1,19.062,22.2c.037,1.071.406,2.327,2.032,2.327,1.589,0,1.995-1.219,2.032-2.253.406-8.127,6.206-13.89,14.37-14.334,1.441-.074,2.217-.813,2.179-2.069a1.809,1.809,0,0,0-.554-1.4,2.4,2.4,0,0,0-1.662-.591,18.368,18.368,0,0,0-14.3,6.908c-.222.259-.406.48-.628.776l-.591.7-.443-.074a.525.525,0,0,1-.222-.074l-.3-.111-.111-.3a27.679,27.679,0,0,0-10.011-11.858l-.332-.222V617.9a.718.718,0,0,1,.037-.259l.074-.369.369-.148a19.2,19.2,0,0,0,10.307-9.494l.407-.85.7.591a9.72,9.72,0,0,0,5.726,2.512,33.787,33.787,0,0,0,5.8-.037,1.781,1.781,0,0,1,2.143,1.4,10.16,10.16,0,0,0,7.647,6.76,10.482,10.482,0,0,0,7.277-1.071l1.071-.554v4.876C2506.123,624.288,2506.123,627.132,2506.05,630.014Zm.074-26.968h0v4.581a6.393,6.393,0,0,1-6.243,6.613h-.037a6.149,6.149,0,0,1-4.433-1.884,6.825,6.825,0,0,1-1.848-4.655c-.037-4.655-.037-9.2,0-13.558a6.579,6.579,0,0,1,1.958-4.766,6.006,6.006,0,0,1,4.285-1.773h.074a6.374,6.374,0,0,1,6.206,6.465c.037,1.589,0,3.214,0,4.8v2.143C2506.123,601.679,2506.123,602.381,2506.123,603.046Z" data-name="Trazado 179" transform="translate(-2431.5 -566.985)"/></g><path id="Trazado_180" fill="#fff" d="M2700.135,683.086c-1.921.074-3.879.074-5.726.037h-2.7c-1.588,0-2.512.813-2.512,2.217s.924,2.216,2.512,2.216h5.283c1.182,0,2.365,0,3.546.037a2.809,2.809,0,0,0,2.992-1.552v-1.626A3.586,3.586,0,0,0,2700.135,683.086Z" data-name="Trazado 180" transform="translate(-215.216 -116.012)"/><path id="Trazado_181" fill="#fff" d="M2360.017,683.2h-9.79a2.311,2.311,0,0,0-1.736.665,2.174,2.174,0,0,0-.591,1.589,2.145,2.145,0,0,0,2.291,2.18h9.753a2.254,2.254,0,0,0,1.736-.665,2.338,2.338,0,0,0,.591-1.589A2.115,2.115,0,0,0,2360.017,683.2Z" data-name="Trazado 181" transform="translate(0 -116.089)"/><path id="Trazado_182" fill="#fff" d="M2414.461,557.817h0c-1.108-1.145-2.29-2.29-3.4-3.436l-2.032-2.032a2.719,2.719,0,0,0-1.884-.85,2.374,2.374,0,0,0-1.958,1.478,2.131,2.131,0,0,0,.628,2.512c1.773,1.81,3.657,3.694,5.542,5.541a2.245,2.245,0,0,0,3.362.185C2415.644,560.255,2415.533,558.962,2414.461,557.817Z" data-name="Trazado 182" transform="translate(-36.011 -33.042)"/><path id="Trazado_183" fill="#fff" d="M2652.073,551.722a2.246,2.246,0,0,0-.924-.222,2.342,2.342,0,0,0-1.588.739c-1.921,1.847-3.805,3.768-5.652,5.652a2.246,2.246,0,0,0-.185,3.288,2.152,2.152,0,0,0,1.515.7,2.787,2.787,0,0,0,1.848-.813c1.4-1.367,2.844-2.808,4.211-4.174l1.367-1.367a2.747,2.747,0,0,0,.813-1.773A2.415,2.415,0,0,0,2652.073,551.722Z" data-name="Trazado 183" transform="translate(-186.143 -33.042)"/><path id="Trazado_184" fill="#fff" d="M2534.151,511.808h0a2.173,2.173,0,0,0,2.254-2.327V501.5a2.141,2.141,0,0,0-2.18-2.4h-.037a2.033,2.033,0,0,0-1.552.591,2.46,2.46,0,0,0-.665,1.736c-.037,2.955,0,5.615,0,8.127A2.135,2.135,0,0,0,2534.151,511.808Z" data-name="Trazado 184" transform="translate(-116.061)"/></g></svg>