<svg xmlns="http://www.w3.org/2000/svg" width="115.7" height="102" viewBox="0 0 115.7 102"><path id="Trazado_241" fill="#f4f4f4" d="M115.7,15.4c-.6-1.2-1.6-1.7-3.3-1.7h-.1c-5.9.1-12,.1-17.8.1H83.1a2.2,2.2,0,0,1-1.6-.5,2.2,2.2,0,0,1-.5-1.6c.1-2.2.1-4.7-1.2-6.9A9.111,9.111,0,0,0,72,0C61.7,0,52.7,0,43.7.1a9.228,9.228,0,0,0-9,9,28.034,28.034,0,0,0,0,2.9,1.792,1.792,0,0,1-.4,1.4,1.964,1.964,0,0,1-1.5.5H2.9c-2,0-2.9.9-2.9,2.9V92a9.669,9.669,0,0,0,2.9,7c2.3,2.3,5.7,2.5,6.8,2.6,3.8.3,15.6.4,32.6.4s39.2-.1,63.8-.4a9.484,9.484,0,0,0,5.7-1.6,9.315,9.315,0,0,0,3.6-4.9c.1-.3.2-.6.3-1V15.4ZM40,8.7a4.481,4.481,0,0,1,4.5-4.5H71.3a4.5,4.5,0,0,1,0,9H44.5A4.481,4.481,0,0,1,40,8.7ZM68.9,61.5a1.231,1.231,0,0,1-1,.5H48.2a1.746,1.746,0,0,1-1.2-.4,1.374,1.374,0,0,1-.4-1.2V55a1.844,1.844,0,0,1,.4-1.3,2.168,2.168,0,0,1,1.4-.5H67.3a1.872,1.872,0,0,1,1.4.5,2.456,2.456,0,0,1,.5,1.5c-.1,1.8,0,3.5,0,5.2h0A2.016,2.016,0,0,1,68.9,61.5Zm40.5-41.4-6.7,20.1c-.9,2.8-1.9,5.6-2.8,8.3l-1.1,3.2A4.484,4.484,0,0,1,94,55.2H75.9a1.536,1.536,0,0,1-1.3-.5,1.792,1.792,0,0,1-.4-1.4V50.8a2.193,2.193,0,0,0-.7-1.7,2.06,2.06,0,0,0-1.7-.7H44a2.837,2.837,0,0,0-1.7.7,2.342,2.342,0,0,0-.7,1.7v2.8a1.746,1.746,0,0,1-.4,1.2,1.286,1.286,0,0,1-1.2.4H21.3a5.3,5.3,0,0,1-2.7-.8A4.606,4.606,0,0,1,17,52.1c-.7-1.9-5-15-10.6-32a.755.755,0,0,1,.1-.8l.1-.1a.908.908,0,0,1,.7-.3h101a.909.909,0,0,1,.8.4A.829.829,0,0,1,109.4,20.1ZM6.9,37.8c1,2.4,1.9,4.9,2.7,7.4l.3,1c.4,1.4.8,2.3,1.1,3.3l.4,1.2c.2.6.4,1.2.7,2,1.3,4.2,3.9,6.6,7.8,7.4a12.1,12.1,0,0,0,1.9.1h18a2.767,2.767,0,0,1,1.6.5,1.875,1.875,0,0,1,.4,1.6v2.3a2.519,2.519,0,0,0,2.4,2.5H72a2.837,2.837,0,0,0,1.7-.7,2.875,2.875,0,0,0,.7-1.8V62.2a1.687,1.687,0,0,1,.4-1.4,2.271,2.271,0,0,1,1.6-.6h9.2c2.9,0,5.9,0,8.8.1a8.984,8.984,0,0,0,6.1-2,11.685,11.685,0,0,0,3.5-5,132.964,132.964,0,0,0,5.2-15,.963.963,0,0,1,1-.7.876.876,0,0,1,.8.9v.8c.3,11.6.3,23.3.2,34.6-.1,5.6-.1,11.4-.1,17.3,0,3.6-1.7,5.3-5.3,5.3H10.3C6.6,96.5,5,94.9,5,91.2v-53a1.08,1.08,0,0,1,.3-.7.908.908,0,0,1,.7-.3A1.149,1.149,0,0,1,6.9,37.8Z" data-name="Trazado 241"/></svg>