<svg xmlns="http://www.w3.org/2000/svg" width="99.449" height="119.08" viewBox="0 0 99.449 119.08"><g id="Grupo_211" data-name="Grupo 211" transform="translate(-978.375 -532.3)"><path id="Trazado_168" fill="#fff" d="M1077.356,571.686a43.429,43.429,0,0,0-9.624-22.075,45.512,45.512,0,0,0-28.11-16.644c-.985-.159-2-.318-2.954-.476-.413-.064-.858-.127-1.271-.191h-7.178c-.445.064-.921.127-1.366.191-.985.127-2.033.286-3.018.476-9.465,1.969-17.343,5.813-23.441,11.435-6.067,5.59-10.577,13.15-13.341,22.393-1.62,5.432-1.556,11.276-1.493,16.453a10.135,10.135,0,0,1-.381,2.827c-1.556,5.082-3.081,10.2-4.574,15.119-.667,2.192-1.3,4.383-1.969,6.543-.635,2.1-.159,3.049,1.906,3.748l2.1.731c2.732.953,5.495,1.906,8.258,2.827a2.547,2.547,0,0,1,1.906,2.7c-.032,4.161-.032,8.385-.032,12.483v2.7a2.443,2.443,0,0,0,2.763,2.763h3.081c4.415,0,8.957,0,13.436-.032h.1a2.3,2.3,0,0,1,1.715.6,2.351,2.351,0,0,1,.572,1.779c-.063,3.049-.032,6.162-.032,9.148v1.493a2.413,2.413,0,0,0,2.732,2.7h42.531c2,0,2.8-.794,2.8-2.827v-6.511c0-8.957,0-18.232-.032-27.348a4.016,4.016,0,0,1,1.3-3.145C1074.784,600.559,1079.389,587.123,1077.356,571.686Zm-17.692,37.353a4.925,4.925,0,0,0-1.842,4.1c.063,6.257.063,12.61.063,18.772v12.483a2.591,2.591,0,0,1-.6,1.906,2.456,2.456,0,0,1-1.81.6h-.064c-4.32-.032-8.767-.032-12.673-.032h-8.862c-4.066,0-8.29,0-12.419.032a2.033,2.033,0,0,1-2.319-2.319c.032-2.859.032-5.813.032-8.64v-1.81c0-2.223-.794-2.986-3.018-2.986h-3.208c-4.288,0-8.735,0-13.086.032a2.44,2.44,0,0,1-1.874-.6,2.487,2.487,0,0,1-.6-1.842c.032-3.621.032-7.305.032-10.895V614.82c0-1.969-.413-2.509-2.287-3.176-.985-.349-1.938-.667-2.922-1.016-2.128-.762-4.352-1.525-6.543-2.223a2.078,2.078,0,0,1-1.493-2.954c1.048-3.367,2.065-6.8,3.081-10.1l.032-.1c.889-2.89,1.747-5.781,2.636-8.671a8.664,8.664,0,0,0,.349-2.319v-2.827a56.287,56.287,0,0,1,.445-9.211,41.093,41.093,0,0,1,13.595-24.87,39.528,39.528,0,0,1,22.838-10.132c13.976-1.366,25.855,3.145,35.384,13.436a39.384,39.384,0,0,1,10.418,22.838C1074.339,587.441,1069.924,599.415,1059.664,609.039Z" data-name="Trazado 168"/><path id="Trazado_169" fill="#fff" d="M1077.43,577.2h-.222a31.43,31.43,0,1,0-.127,62.859h.191a31.465,31.465,0,0,0,31.318-31.223,31.615,31.615,0,0,0-31.16-31.636Zm18.518,50.5a26.789,26.789,0,0,1-18.963,7.718h-.127a26.777,26.777,0,0,1,.191-53.552h.1a26.795,26.795,0,0,1,18.8,45.834Z" data-name="Trazado 169" transform="translate(-45.94 -30.638)"/><path id="Trazado_170" fill="#fff" d="M1153.726,657.017a2.157,2.157,0,0,0-.635-2.382c-3.526-3.43-6.8-6.575-10.005-9.624a3.27,3.27,0,0,1-1.112-2.6c.032-1.143.032-2.319.032-3.43v-6.13a2.337,2.337,0,0,0-2.287-2.446h0a2.232,2.232,0,0,0-1.588.635,2.539,2.539,0,0,0-.73,1.842v11.975a2.11,2.11,0,0,0,.635,1.652c4.129,4,8.163,7.845,11.975,11.5a2.065,2.065,0,0,0,1.747.6A2.112,2.112,0,0,0,1153.726,657.017Z" data-name="Trazado 170" transform="translate(-108.514 -66.94)"/></g></svg>