<svg xmlns="http://www.w3.org/2000/svg" width="117.307" height="116.219" viewBox="0 0 117.307 116.219"><g id="Grupo_214" data-name="Grupo 214" transform="translate(-1411.6 -534.646)"><path id="Trazado_178" fill="#fff" d="M1518.33,570.8c-1.757-5.4-3.739-10.8-5.911-16.073a1.537,1.537,0,0,0-.384-.511L1490.88,535.11a1.978,1.978,0,0,0-.895-.447,1.852,1.852,0,0,0-.991.128c-.767.32-12.3,5.5-28.057,12.622a.069.069,0,0,0-.064.064.242.242,0,0,0-.032.128c-.224,1.566-.416,3.132-.639,4.665v.064c-.1.639-.192,1.278-.288,1.949l-.543,3.867c-.416,2.876-.831,5.784-1.246,8.66-.032.16-.032.192.128.383,3.036,3.994,5.752,7.637,8.308,11.088.128.192.16.224.511.224h8.085c3.451,0,7,0,10.481-.032a2.34,2.34,0,0,1,2.62,2.748c-.064.991-.032,2.045-.032,3.036v12.111l-.032.064a1.7,1.7,0,0,1-1.119.927,1.607,1.607,0,0,1-1.6-.575,29.413,29.413,0,0,0-20.8-6.583,28.634,28.634,0,0,0-16.936,6.838l-.064.064a3.755,3.755,0,0,1-4.729.128,34.465,34.465,0,0,0-17.99-6.966,94.742,94.742,0,0,0-9.523-.224h-.064c-1.182,0-2.493.032-3.771.032v60.235c3.2-.959,6.455-1.917,9.587-2.844h.064c2.588-.767,5.177-1.5,7.733-2.269a5.512,5.512,0,0,1,1.725-.256,5.822,5.822,0,0,1,1.79.288,112.366,112.366,0,0,0,44.13,5.273,120.82,120.82,0,0,0,18.694-2.972c7.765-1.853,15.306-4.857,22.592-7.8l.224-.1c2.652-1.055,5.368-2.109,7.989-3.132l.192-.064c.863-.32,1.726-.671,2.588-.991l-.192-10.929A224.859,224.859,0,0,0,1518.33,570.8Zm4.921,62.344c-2.237.863-4.538,1.789-6.711,2.684l-.1.032a164.753,164.753,0,0,1-21.218,7.445,112.239,112.239,0,0,1-27.417,3.387c-.927,0-1.885,0-2.812-.032a111.629,111.629,0,0,1-33.585-6.135,1.6,1.6,0,0,0-1.214,0q-4.649,1.39-9.395,2.78l-5.177,1.534v-11.7c0-11.855,0-24.094-.032-36.173a2.408,2.408,0,0,1,2.684-2.716c5.145-.064,9.427.224,13.709,1.758a33.968,33.968,0,0,1,9.075,4.985,2.133,2.133,0,0,1,.511,3.132,27.822,27.822,0,0,0-3.036,6.423,2.388,2.388,0,0,0,.8,1.917,2.463,2.463,0,0,0,3.227-.831,24.178,24.178,0,0,1,6.583-10.321c6.071-5.624,13.1-7.925,20.9-6.774,10.194,1.47,17.224,7.254,20.867,17.128a2.172,2.172,0,0,0,2.429.991,2.09,2.09,0,0,0,1.5-2.045,23.974,23.974,0,0,1-1.086-2.461,22.732,22.732,0,0,1-1.374-6.711c-.256-3.547-.352-13.133,0-25.756a1.206,1.206,0,0,0-.32-.863,1.16,1.16,0,0,0-.831-.352c-5.273,0-8.628,0-10.769.032h-9.842a3.228,3.228,0,0,1-2.876-1.438c-.991-1.374-2.045-2.78-3.036-4.09-.416-.543-.8-1.055-1.214-1.6a1.513,1.513,0,0,1,.16-1.981,2.408,2.408,0,0,1,2.013-.607h.1c4.634,0,9.171-.032,13.645,0,.575-2.588,1.182-5.113,1.726-7.254a2.14,2.14,0,0,0-1.693-2.4,2.1,2.1,0,0,0-2.3,1.406c.032.575-.032,2.748-1.438,3.643a5.282,5.282,0,0,1-3.323.511c-.352-.032-.671-.064-.927-.064h-8.18l.511-3.835c.224-1.566.415-3.132.639-4.665a3.067,3.067,0,0,1,1.885-2.556c7.829-3.515,14.987-6.774,21.889-9.938a2.64,2.64,0,0,1,3.259.575c5.241,4.985,10.481,9.906,16.3,15.4a4.763,4.763,0,0,1,1.31,1.853,248.55,248.55,0,0,1,10.257,31.06,184.378,184.378,0,0,1,4.218,22.816c.767,6.487,1.087,13.1,1.31,19.3A2.413,2.413,0,0,1,1523.251,633.148Z" data-name="Trazado 178"/></g></svg>