<svg xmlns="http://www.w3.org/2000/svg" width="119.859" height="105.504" viewBox="0 0 119.859 105.504"><path id="Trazado_173" fill="#fff" d="M683.294,35.177l-.032-.287v-.064a30.893,30.893,0,0,0-7.281-16.7C670.072,11.1,662.7,7.137,654.072,6.338c-7.409-.671-14.563,1.405-21.3,6.2a54.421,54.421,0,0,0-7.633,6.962l-.032.032c-.511.511-1.022,1.022-1.533,1.565a2.4,2.4,0,0,1-1.693.83,2.285,2.285,0,0,1-1.693-.894c-1.533-1.565-3.13-3.13-4.663-4.567-6.2-5.876-13.286-8.846-21.078-8.846a33.244,33.244,0,0,0-7.186.8,29.948,29.948,0,0,0-18.2,12.136,30.574,30.574,0,0,0-5.142,21.94,30.092,30.092,0,0,0,9.645,18.076c1.884,1.757,3.769,3.513,5.589,5.238,1.852,1.757,3.737,3.545,5.653,5.3a2.462,2.462,0,0,1,.607,3.385,9.078,9.078,0,0,0-.83,6.387,9.746,9.746,0,0,0,8.91,7.856,1.876,1.876,0,0,1,1.916,1.693c.83,5.589,4.024,8.846,9.421,9.645a2.378,2.378,0,0,1,2.236,2.3c.607,4.343,2.874,7.25,6.739,8.623a10.159,10.159,0,0,0,11.21-2.459c1.309-1.277,2.619-2.587,3.9-3.864l.1-.1c.543-.575,1.118-1.118,1.661-1.693.862-.862,1.405-1.405,2.3-1.405s1.469.575,2.267,1.373a10.321,10.321,0,0,0,9.613,3.13c4.822-.894,7.952-4.248,8.846-9.453a2.238,2.238,0,0,1,2.331-2.14,10.62,10.62,0,0,0,9.709-9.645,2.19,2.19,0,0,1,2.236-2.268,10.288,10.288,0,0,0,7.569-4.216,10.586,10.586,0,0,0-1.054-14.052c-1.405-1.405-1.405-2.619-.1-4.056a34.633,34.633,0,0,0,8.048-14.244c.287-1.054.511-2.14.734-3.194.1-.479.192-.926.287-1.405V35.592a1.6,1.6,0,0,1-.16-.415ZM584.61,64.622h0c-3.13-2.906-6.387-5.908-9.357-9.1-6.77-7.25-8.719-16.064-5.653-25.453s9.9-15.361,19.673-17.246A24.336,24.336,0,0,1,611.693,19.4c5.589,5.27,11.178,10.7,16.543,15.968,2.012,1.98,4.024,3.928,6.036,5.908a6.935,6.935,0,1,1-9.613,10c-.671-.639-1.309-1.309-1.948-1.948l-.032-.032-1.98-1.98a6.188,6.188,0,0,0-8.814.032C606.423,52.806,600.93,58.3,595.6,63.6L591.6,67.592c-.16.16-.351.383-.543.607-.1.128-.224.255-.319.383l-.862.99-.958-.926C587.485,67.273,586.016,65.931,584.61,64.622Zm61,36.376a6.11,6.11,0,0,1-2.747.671,5.536,5.536,0,0,1-3.768-1.5,66.65,66.65,0,0,1-4.982-4.982,6.034,6.034,0,0,1,8.591-8.4c1.756,1.6,3.353,3.289,4.886,4.854a5.061,5.061,0,0,1,1.469,3.545A6.061,6.061,0,0,1,645.609,101Zm14.914-14.627a6.007,6.007,0,0,1-5.333,3.577h-.1a5.949,5.949,0,0,1-4.279-1.757l-1.437-1.437c-3.066-3.066-6.26-6.228-9.389-9.389a5.87,5.87,0,0,1-.032-8.335,6.223,6.223,0,0,1,4.375-2.012,5.617,5.617,0,0,1,4.056,1.629c3.577,3.449,7.218,7.09,11.178,11.178A5.682,5.682,0,0,1,660.523,86.371Zm11.944-11.944A5.958,5.958,0,0,1,666.911,78h-.192a5.617,5.617,0,0,1-3.96-1.661l-.8-.8c-1.98-1.948-3.992-3.96-5.972-5.972a6.057,6.057,0,0,1,8.559-8.559c2.044,2.012,4.216,4.152,6.771,6.771A5.771,5.771,0,0,1,672.468,74.427Zm-1.725-16.958a1.967,1.967,0,0,1-3.1.064A10.675,10.675,0,0,0,650.527,61.4a2.19,2.19,0,0,1-3.066,1.469,10.629,10.629,0,0,0-11.529,3.673,10.738,10.738,0,0,0-.7,12.168,2.135,2.135,0,0,1,.319,1.661,2.044,2.044,0,0,1-1.214,1.214,10.682,10.682,0,0,0-5.3,14.212,2.258,2.258,0,0,1-.543,2.747c-1.182,1.15-2.363,2.331-3.513,3.481l-.032.032c-1.086,1.118-2.2,2.2-3.321,3.289a5.984,5.984,0,0,1-4.184,1.757,5.758,5.758,0,0,1-4.024-1.629,5.842,5.842,0,0,1-.1-8.335c1.182-1.214,2.363-2.4,3.545-3.577l3.13-3.13a2.339,2.339,0,0,0,.447-2.778,2.408,2.408,0,0,0-2.587-1.15,2.616,2.616,0,0,0-1.341.83l-6.26,6.26a5.924,5.924,0,0,1-8.4.224,5.7,5.7,0,0,1-1.788-4.216,6.283,6.283,0,0,1,1.916-4.279c1.15-1.182,2.331-2.331,3.481-3.513.926-.926,1.852-1.82,2.747-2.747,1.182-1.182,1.277-2.587.287-3.577-1.022-1.022-2.4-.894-3.577.287l-3.1,3.1-3.513,3.513a5.749,5.749,0,0,1-4.024,1.788h-.032a5.071,5.071,0,0,1-3.673-1.629c-2.172-2.2-2.044-5.27.287-7.6l7.09-7.09c5.461-5.461,11.114-11.114,16.639-16.671a2.172,2.172,0,0,1,3.513.064c1.022,1.086,2.108,2.172,3.194,3.194l.224.224a11.608,11.608,0,0,0,16.288-16.543c-3.385-3.353-6.93-6.8-10.858-10.539a2.413,2.413,0,0,1-.862-1.661,2.168,2.168,0,0,1,.862-1.629c.926-.862,1.82-1.788,2.715-2.683a57.915,57.915,0,0,1,4.279-4.088A26.482,26.482,0,0,1,651.517,11.1a27.063,27.063,0,0,1,26.827,22.675C679.749,42.746,677.226,50.73,670.743,57.468Z" data-name="Trazado 173" transform="translate(-563.594 -6.215)"/></svg>