<svg xmlns="http://www.w3.org/2000/svg" width="120.532" height="120.477" viewBox="0 0 120.532 120.477"><g id="Grupo_212" data-name="Grupo 212" transform="translate(-1830.196 -9.871)"><path id="Trazado_171" fill="#fff" d="M1940.61,127.866a6.74,6.74,0,0,0,1.477-7.352c-.251-.66-.189-.88.44-1.194a6.878,6.878,0,0,0,3.551-8.924c-.094-.283-.5-.6.094-.817a7.669,7.669,0,0,0,4.4-5.09,5.858,5.858,0,0,0,.157-1.414,5.4,5.4,0,0,0-.157-1.383,6.175,6.175,0,0,0-1.257-2.891,6.289,6.289,0,0,0-1.728-1.445.422.422,0,0,1-.188-.22c-.063-.189.126-.377.157-.44,1.948-4.085,1.163-7.1-2.451-9.615a.985.985,0,0,1-.471-.943V67.255a2.7,2.7,0,0,1,.471-1.54c.974-1.6,1.948-3.2,2.891-4.807a35.213,35.213,0,0,0,2.608-4.776V23.705a8.647,8.647,0,0,0-2.576-4.21,6.569,6.569,0,0,0-6.913-1.163c-.786.314-1.006.094-1.351-.566a6.8,6.8,0,0,0-8.7-3.425c-.786.283-.943.063-1.225-.534a6.931,6.931,0,0,0-11.751-1.225c-.346.44-.5.566-1.068.251a6.8,6.8,0,0,0-9.395,2.388,1.1,1.1,0,0,1-1.1.628c-6.221-.031-12.443,0-18.664,0a3.465,3.465,0,0,1-1.76-.5c-2.419-1.477-4.9-2.922-7.321-4.4a7.269,7.269,0,0,0-3.9-1.068c-9.74.031-19.481,0-29.253.031a7.043,7.043,0,0,0-6.818,9.678c.251.723.031.817-.5,1.068a6.814,6.814,0,0,0-3.551,8.829c.22.6.188.817-.409,1.1a6.887,6.887,0,0,0-1.32,11.846c.534.408.408.628.157,1.068a6.866,6.866,0,0,0,2.388,9.3,1.21,1.21,0,0,1,.66,1.194c-.031,6.19,0,12.38,0,18.538a3.226,3.226,0,0,1-.566,1.854c-1.414,2.294-2.765,4.619-4.179,6.913a8.08,8.08,0,0,0-1.257,4.43c.031,9.615.126,19.261-.031,28.876-.094,4.713,4.682,9.112,9.8,6.944.534-.22.691-.157.943.377,1.791,3.676,5.184,5,9.112,3.645.283-.094.534-.377.723.126a7.714,7.714,0,0,0,5.09,4.43,6.7,6.7,0,0,0,1.383.22,4.366,4.366,0,0,0,1.445-.22,9.657,9.657,0,0,0,2.482-1.257,9.818,9.818,0,0,0,1.823-1.728.422.422,0,0,1,.22-.189c.189-.063.377.126.44.157,4.179,1.98,6.85,1.288,9.678-2.514a.924.924,0,0,1,.88-.408h19.01a2.54,2.54,0,0,1,1.414.471c1.6.974,3.2,1.948,4.807,2.891a39.022,39.022,0,0,0,4.776,2.608h32.427A9.092,9.092,0,0,0,1940.61,127.866Zm-33.243-84.271a1.981,1.981,0,0,0,3.079-1.32,7.127,7.127,0,0,0,.094-1.414V20.06a10.822,10.822,0,0,1,.094-1.76,2.967,2.967,0,0,1,2.671-2.388,2.845,2.845,0,0,1,3.016,2.074,5.681,5.681,0,0,1,.188,1.634v9.992c0,1.445.817,2.325,2.042,2.294a2.021,2.021,0,0,0,1.948-2.294V17.641a4.163,4.163,0,0,1,.157-1.383,3.1,3.1,0,0,1,3.079-2.357,2.942,2.942,0,0,1,2.7,3.016c.031,3.959.031,7.918.031,11.846,0,.346-.031.691,0,1.068a2.063,2.063,0,1,0,4.116-.157c.031-2.891,0-5.781,0-8.7a2.919,2.919,0,0,1,2.639-3.048,3.012,3.012,0,0,1,3.142,2.262,4.384,4.384,0,0,1,.126,1.288v12.1c0,1.508.88,2.419,2.137,2.357,1.194-.063,1.917-.88,1.948-2.325.031-2.734,0-5.467,0-8.232a3.3,3.3,0,0,1,.88-2.577,2.967,2.967,0,0,1,4.87,1.163,5.914,5.914,0,0,1,.251,1.98V53.995a4.529,4.529,0,0,1-.723,2.545c-1.445,2.357-2.828,4.745-4.273,7.133a7.418,7.418,0,0,0-1.1,3.99c.031,5.75,0,11.5.031,17.25,0,.848-.157,1.1-1.068,1.1-5.216-.063-10.4-.031-15.616-.031h-1.005c.974-1.194,1.823-2.2,2.608-3.2a6.451,6.451,0,0,0,.6-7.73,6.517,6.517,0,0,0-7.132-2.765,1.611,1.611,0,0,1-.314-.031c0-1.885-.031-3.8,0-5.719a7.311,7.311,0,0,0-2.294-5.656c-6.253-6.221-12.411-12.506-18.633-18.758a3.344,3.344,0,0,1-1.131-1.728,2.321,2.321,0,0,1,1.131-2.514,2.408,2.408,0,0,1,2.859.189c1.979,1.6,3.928,3.2,5.907,4.807C1906.739,43.092,1907.053,43.375,1907.367,43.595ZM1866.426,65.4a1.712,1.712,0,0,1,.565-1.32q8.719-8.625,17.407-17.282a2.587,2.587,0,0,1,1.979-.817c2.891.031,5.781.031,8.7,0a1.612,1.612,0,0,1,1.225.5q8.672,8.766,17.376,17.5a2.516,2.516,0,0,1,.785,1.885c-.031,1.445,0,2.891,0,4.336h-.063c0,1.728.471,3.613-.126,5.09-.566,1.445-2.231,2.451-3.425,3.613-4.682,4.65-9.395,9.3-14.077,13.982a3.224,3.224,0,0,1-2.577,1.068c-2.7-.063-5.4-.031-8.107,0a1.886,1.886,0,0,1-1.54-.6q-8.578-8.672-17.219-17.313a2.6,2.6,0,0,1-.848-2.074C1866.457,71.088,1866.457,68.229,1866.426,65.4Zm-32.112-28.782a2.968,2.968,0,0,1,3.048-2.671c3.928-.031,7.824,0,11.751-.031.346,0,.691.031,1.068,0a2.051,2.051,0,1,0-.126-4.085c-2.891-.031-5.781,0-8.7,0a2.911,2.911,0,0,1-2.859-1.98,2.974,2.974,0,0,1,2.953-3.9c4.116-.031,8.232,0,12.317,0a2.837,2.837,0,0,0,1.257-.157,1.925,1.925,0,0,0,1.288-2.137,1.847,1.847,0,0,0-1.634-1.728,7.252,7.252,0,0,0-1.163-.094c-2.608,0-5.247.031-7.855,0-1.979-.031-3.268-1.163-3.331-2.891a3.148,3.148,0,0,1,3.331-3.079c9.772-.031,19.575,0,29.347-.031a3.571,3.571,0,0,1,1.76.6c2.419,1.445,4.839,2.859,7.227,4.336a8.028,8.028,0,0,0,4.21,1.163c5.719-.031,11.437,0,17.156-.031.848,0,1.1.189,1.1,1.068-.063,5.216-.031,10.4-.031,15.616v1.005c-1.225-1.005-2.262-1.885-3.3-2.7a6.563,6.563,0,0,0-10.683,4.3,4.731,4.731,0,0,0-.031.943c.126,1.7.126,1.7-1.54,1.7h-4.242a6.829,6.829,0,0,0-5.153,2.105c-6.284,6.284-12.6,12.506-18.915,18.79a3.344,3.344,0,0,1-1.728,1.131,2.283,2.283,0,0,1-2.514-1.1,2.361,2.361,0,0,1,.157-2.828c1.728-2.168,3.519-4.3,5.279-6.441a2.167,2.167,0,0,0,.44-2.388,2.117,2.117,0,0,0-2.105-1.194H1840.6a12.108,12.108,0,0,1-1.508-.063,2.963,2.963,0,0,1-2.7-2.765,2.8,2.8,0,0,1,2.357-3.016,6.861,6.861,0,0,1,1.383-.126h9.866c1.477,0,2.356-.754,2.356-1.98s-.88-2.011-2.356-2.011h-11.877a5.156,5.156,0,0,1-1.383-.126A3.258,3.258,0,0,1,1834.313,36.619Zm39.873,60.234a2.462,2.462,0,0,0-2.671-.66c-1.068.471-1.194,1.445-1.194,2.451v21.492a3.758,3.758,0,0,1-1.131,3.174,2.885,2.885,0,0,1-4.65-1.32,5.7,5.7,0,0,1-.22-1.634v-9.992c0-1.477-.754-2.357-2.011-2.357-1.225,0-2.011.88-2.011,2.357V122.21a5.154,5.154,0,0,1-.126,1.383,3.118,3.118,0,0,1-3.173,2.419,2.942,2.942,0,0,1-2.639-3.048c-.031-3.959,0-7.918-.031-11.846,0-.346.031-.723,0-1.068a2.074,2.074,0,0,0-2.105-2.074,2.039,2.039,0,0,0-1.979,2.168c-.031,2.922,0,5.876-.031,8.8a2.883,2.883,0,0,1-1.979,2.859,2.991,2.991,0,0,1-3.9-2.954c-.031-4.022,0-8.075,0-12.1a9.41,9.41,0,0,0,0-.943,2.044,2.044,0,0,0-2.042-1.854,1.884,1.884,0,0,0-1.948,1.791c-.094,1.163-.063,2.357-.063,3.519,0,1.885.031,3.771-.031,5.624a2.969,2.969,0,0,1-2.891,3.079,3.165,3.165,0,0,1-3.048-2.859,5.992,5.992,0,0,1-.031-1.068V85.856a4.53,4.53,0,0,1,.723-2.545c1.414-2.294,2.765-4.619,4.179-6.913a8.052,8.052,0,0,0,1.194-4.336c-.031-5.687.031-11.343-.031-17.03,0-1.005.283-1.194,1.225-1.194,5.059.063,10.086.031,15.145.031h1.32c-.974,1.194-1.791,2.2-2.639,3.236a6.5,6.5,0,0,0,4.336,10.777,7.1,7.1,0,0,0,.817.031c1.7-.126,1.7-.126,1.7,1.54V73.79a6.691,6.691,0,0,0,2.042,4.933c6.316,6.316,12.568,12.663,18.853,19.01a3.343,3.343,0,0,1,1.131,1.728,2.45,2.45,0,0,1-3.959,2.325C1878.3,100.215,1876.229,98.55,1874.186,96.853Zm52.661,23.251c2.576.031,5.153,0,7.761,0,.377,0,.785,0,1.163.031a2.94,2.94,0,0,1,2.765,2.7,3.054,3.054,0,0,1-2.262,3.048,4.968,4.968,0,0,1-1.508.189h-28.53a3.815,3.815,0,0,1-2.105-.6c-2.388-1.445-4.839-2.859-7.227-4.336a7.872,7.872,0,0,0-4.21-1.163c-5.719.031-11.437,0-17.156.031-.817,0-1.131-.094-1.131-1.037.063-5.467.031-10.934.031-16.653,1.225,1.005,2.231,1.854,3.268,2.671a6.463,6.463,0,0,0,6.724.974,6.184,6.184,0,0,0,3.99-5.342,4.74,4.74,0,0,0,.031-.943c-.157-1.634-.157-1.6,1.414-1.634,1.414,0,2.828-.031,4.242,0a7.019,7.019,0,0,0,5.342-2.168c6.253-6.253,12.568-12.474,18.853-18.7a3.343,3.343,0,0,1,1.728-1.131,2.374,2.374,0,0,1,2.545,1.068,2.315,2.315,0,0,1-.157,2.828c-1.6,2.011-3.268,3.99-4.9,6-.251.314-.5.6-.723.911a1.966,1.966,0,0,0,1.288,3.016,6.979,6.979,0,0,0,1.414.094h20.9a9.5,9.5,0,0,1,1.634.094,2.968,2.968,0,0,1,2.482,2.7,2.865,2.865,0,0,1-2.105,2.985,4.969,4.969,0,0,1-1.508.189H1930.9c-1.508,0-2.356.723-2.388,1.98-.031,1.288.88,2.042,2.451,2.042h11.877a4.969,4.969,0,0,1,1.508.189,3.137,3.137,0,0,1,2.231,3.079,2.915,2.915,0,0,1-2.922,2.671c-3.833.063-7.667.031-11.5.031-.471,0-.943-.031-1.414,0a2.065,2.065,0,1,0,.063,4.116c1.76.031,3.519,0,5.279,0h3.393a2.988,2.988,0,0,1,3.079,2.891,3.1,3.1,0,0,1-3.111,3.016c-3.456.031-6.881,0-10.337,0h-2.231c-1.445.031-2.357.817-2.357,2.042C1924.491,119.288,1925.34,120.073,1926.848,120.1Z" data-name="Trazado 171" transform="translate(0)"/><path id="Trazado_172" fill="#fff" d="M2213,306.6" data-name="Trazado 172" transform="translate(-262.524 -203.494)"/></g></svg>