<svg xmlns="http://www.w3.org/2000/svg" id="Grupo_397" width="89.8" height="112.2" data-name="Grupo 397" viewBox="0 0 89.8 112.2"><g id="headset_1_"><path id="Trazado_266" fill="#fe5810" d="M44.9,7.5A37.343,37.343,0,0,0,7.5,44.9h0v7.5H15a7.555,7.555,0,0,1,7.5,7.5h0V82.4A7.49,7.49,0,0,1,15,89.9H7.5A7.49,7.49,0,0,1,0,82.4V44.9a44.9,44.9,0,1,1,89.8,0V89.8a18.736,18.736,0,0,1-18.7,18.7h-16a7.432,7.432,0,0,1-6.5,3.7H41.1a7.5,7.5,0,0,1,0-15h7.5a7.553,7.553,0,0,1,6.5,3.7h16A11.182,11.182,0,0,0,82.3,89.7H74.8a7.555,7.555,0,0,1-7.5-7.5h0V59.9a7.555,7.555,0,0,1,7.5-7.5h7.5V44.9A37.343,37.343,0,0,0,44.9,7.5Z" data-name="Trazado 266"/></g><g id="Trazado_100_1_"><path id="Trazado_267" fill="#ff4d00" d="M45.2,71.4c-7.5,0-10.1-4.1-10.4-4.5a2.467,2.467,0,0,1,.9-3.4,2.528,2.528,0,0,1,3.4.8c.1.2,1.6,2.1,6.2,2.1h.1c4.7,0,6.2-2.1,6.2-2.2a2.439,2.439,0,0,1,3.4-.8,2.584,2.584,0,0,1,.9,3.5c-.3.5-2.9,4.5-10.5,4.5Z" data-name="Trazado 267"/></g></svg>