<svg xmlns="http://www.w3.org/2000/svg" width="197.147" height="78.3" viewBox="0 0 197.147 78.3"><g id="Grupo_407_1_" transform="translate(-861.353 -347.2)"><path id="person_1_" fill="#ff4d00" d="M1019.4,386.4a19.6,19.6,0,1,0-19.6-19.6,19.632,19.632,0,0,0,19.6,19.6Zm13-19.6a13,13,0,1,1-13-13,12.974,12.974,0,0,1,13,13Zm26.1,52.2c0,6.5-6.5,6.5-6.5,6.5H986.8s-6.5,0-6.5-6.5,6.5-26.1,39.1-26.1S1058.5,412.5,1058.5,419Zm-6.5,0c0-1.6-1-6.4-5.4-10.9-4.3-4.3-12.3-8.7-27.2-8.7s-22.9,4.4-27.2,8.7c-4.4,4.4-5.4,9.2-5.4,10.9Z"/><g id="Grupo_195_1_" transform="translate(6 10)"><g id="Grupo_193_1_" transform="translate(927.355 343.542) rotate(90)"><path id="Trazado_101_1_" fill="#ff4d00" d="M0,20.5V3.8C0,1.3,1.3,0,3.8,0H22.4c2.5,0,3.8,1.3,3.8,3.8V35.9a9.8,9.8,0,1,0,19.6.2V36c.1-7.7,0-15.3,0-23V3.6A3.261,3.261,0,0,1,48.7,0H68.4a3.257,3.257,0,0,1,3.5,3v.5c0,11,.1,22,0,33A35.939,35.939,0,0,1,.7,43,45.1,45.1,0,0,1,0,35.7C-.1,30.6,0,25.5,0,20.5Zm19.6,2.4H6.6c0,3.2-.1,6.3,0,9.4A76.867,76.867,0,0,0,7,40.6a29.383,29.383,0,0,0,58.4-4.7V23.8a2.769,2.769,0,0,0-.1-.9h-13V35.5a27.129,27.129,0,0,1-.4,4.1,16.291,16.291,0,0,1-32-1.6,76.052,76.052,0,0,1-.2-8.3c-.1-2.1-.1-4.4-.1-6.8Zm0-6.6V6.6H6.6v9.7ZM65.3,6.6h-13v9.7h13Z"/></g><g id="Grupo_194_1_" transform="translate(948.993 346.591) rotate(90)"><path id="Trazado_105_1_" fill="#ff4d00" d="M6.7,6.8V10a3.329,3.329,0,0,1-3.3,3.3A3.23,3.23,0,0,1,0,10H0V3.4A3.417,3.417,0,0,1,3.3,0h.1A3.372,3.372,0,0,1,6.8,3.4h0C6.7,4.5,6.7,5.7,6.7,6.8Z"/><path id="Trazado_106_1_" fill="#ff4d00" d="M20.1,6.7v3.4a3.351,3.351,0,0,1-3.3,3.4h-.1a3.351,3.351,0,0,1-3.3-3.4V3.4A3.265,3.265,0,0,1,16.7.1h0a3.487,3.487,0,0,1,3.4,3.3Z"/><path id="Trazado_107_1_" fill="#ff4d00" d="M53.6,6.6V10a3.372,3.372,0,0,1-3.4,3.4h0A3.351,3.351,0,0,1,46.9,10V3.3A3.265,3.265,0,0,1,50.2,0h0a3.487,3.487,0,0,1,3.4,3.3C53.7,4.4,53.6,5.5,53.6,6.6Z"/><path id="Trazado_108_1_" fill="#ff4d00" d="M60.3,6.7V3.3a3.35,3.35,0,0,1,6.7.1V10a3.35,3.35,0,0,1-6.7.1V6.7Z"/></g></g></g></svg>